<svg width="110.000000" height="86.000000" viewBox="0 0 110 86" fill="none" xmlns="http://www.w3.org/2000/svg" xmlns:xlink="http://www.w3.org/1999/xlink">
	<desc>
			Created with Pixso.
	</desc>
	<defs/>
	<path id="Vector" d="M46.94 6.13L42.95 0C15.34 18.54 0 41.08 0 59.63C0 77.56 13.19 86 24.39 86C38.5 86 48.48 74.04 48.48 61.47C48.48 50.89 41.72 41.85 32.67 38.47C30.06 37.55 27.61 36.79 27.61 32.34C27.61 26.67 31.75 18.24 46.94 6.13ZM107.85 6.13L103.86 0C76.55 18.54 60.9 41.08 60.9 59.63C60.9 77.56 74.4 86 85.6 86C99.87 86 110 74.04 110 61.47C110 50.89 103.09 41.85 93.73 38.47C91.12 37.55 88.82 36.79 88.82 32.34C88.82 26.67 93.12 18.24 107.85 6.13Z" fill="#FEC5CE" fill-opacity="1.000000" fill-rule="nonzero"/>
</svg>
