<svg width="41" height="39" viewBox="0 0 41 39" fill="none" xmlns="http://www.w3.org/2000/svg">
<path d="M2.45641 1.94578H38.5492V37.0542H2.45641V1.94578ZM0.8125 38.6953H40.1875V0.304688H0.8125V38.6953ZM26.6031 13.9875C26.6031 13.8567 26.6523 13.7906 26.8 13.7906H29.3763C29.507 13.7906 29.5731 13.8398 29.5731 13.9875V26.932C29.5731 27.0628 29.5408 27.1289 29.3763 27.1289H26.8352C26.6706 27.1289 26.6214 27.0473 26.6214 26.9152V13.9875H26.6045H26.6031ZM26.4231 10.2638C26.4231 9.81993 26.5994 9.39428 26.9133 9.08045C27.2271 8.76662 27.6527 8.59031 28.0966 8.59031C28.5404 8.59031 28.966 8.76662 29.2799 9.08045C29.5937 9.39428 29.77 9.81993 29.77 10.2638C29.7862 10.4905 29.753 10.718 29.6725 10.9306C29.5921 11.1432 29.4663 11.3357 29.3041 11.4949C29.1418 11.6541 28.9469 11.7761 28.7328 11.8525C28.5187 11.9288 28.2906 11.9577 28.0642 11.9372C27.8424 11.9511 27.6202 11.9171 27.4128 11.8374C27.2053 11.7577 27.0175 11.6343 26.862 11.4755C26.7066 11.3167 26.5871 11.1263 26.5119 10.9172C26.4366 10.7081 26.4073 10.4852 26.4259 10.2638H26.4231ZM19.0403 19.3861C18.5805 17.558 17.4934 13.5952 17.0884 11.6756H17.0561C16.7116 13.5952 15.8425 16.8436 15.1534 19.3861H19.0403ZM14.4798 22.0439L13.1833 26.9658C13.1509 27.0966 13.1017 27.1303 12.9372 27.1303H10.5283C10.3638 27.1303 10.3314 27.0811 10.3637 26.8842L15.0227 10.5717C15.1361 10.127 15.1914 9.66942 15.1872 9.21047C15.1872 9.09516 15.2364 9.04594 15.318 9.04594H18.7633C18.8786 9.04594 18.9278 9.07828 18.9602 9.21047L24.1773 26.9123C24.2097 27.0431 24.1773 27.1261 24.0466 27.1261H21.3227C21.1919 27.1261 21.1089 27.0938 21.0766 26.9855L19.7308 22.0467H14.4813L14.4798 22.0439Z" fill="#FF7F18"/>
</svg>
