<svg width="45" height="45" viewBox="0 0 45 45" fill="none" xmlns="http://www.w3.org/2000/svg">
<g clip-path="url(#clip0_52279_45)">
<path d="M19.25 32C21.044 32 22.5 30.5067 22.5 28.6667V25.3334H19.25C17.456 25.3334 16 26.8267 16 28.6667C16 30.5067 17.456 32 19.25 32Z" fill="#0ACF83"/>
<path d="M16 22C16 20.16 17.456 18.6666 19.25 18.6666H22.5V25.3333H19.25C17.456 25.3333 16 23.84 16 22Z" fill="#A259FF"/>
<path d="M16 15.3333C16 13.4933 17.456 12 19.25 12H22.5V18.6667H19.25C17.456 18.6667 16 17.1733 16 15.3333Z" fill="#F24E1E"/>
<path d="M22.5 12H25.75C27.544 12 29 13.4933 29 15.3333C29 17.1733 27.544 18.6667 25.75 18.6667H22.5V12Z" fill="#FF7262"/>
<path d="M29 22C29 23.84 27.544 25.3333 25.75 25.3333C23.956 25.3333 22.5 23.84 22.5 22C22.5 20.16 23.956 18.6666 25.75 18.6666C27.544 18.6666 29 20.16 29 22Z" fill="#1ABCFE"/>
</g>
<rect x="1" y="1" width="43" height="43" stroke="#F34E1E" stroke-width="2"/>
<defs>
<clipPath id="clip0_52279_45">
<rect width="13" height="20" fill="white" transform="translate(16 12)"/>
</clipPath>
</defs>
</svg>
